<?xml version="1.0" encoding="UTF-8"?>
<svg width="275px" height="140px" viewBox="0 0 275 140" version="1.1" xmlns="http://www.w3.org/2000/svg" xmlns:xlink="http://www.w3.org/1999/xlink">
    <!-- Generator: Sketch 50.2 (55047) - http://www.bohemiancoding.com/sketch -->
    <title>Group 23</title>
    <desc>Created with Sketch.</desc>
    <defs></defs>
    <g id="Retro-Finance" stroke="none" stroke-width="1" fill="none" fill-rule="evenodd" opacity="0.2">
        <g id="Home-Copy-2" transform="translate(-732.000000, -13.000000)" fill="#222222">
            <g id="Group-23" transform="translate(615.000000, 0.000000)">
                <path d="M348.952,134.640625 L368.248,134.640625 L368.248,152.640625 L348.952,152.640625 L348.952,134.640625 Z M326.056,82.512625 C326.056,77.2325986 326.847992,72.4326466 328.432,68.112625 C330.016008,63.7926034 332.319985,60.0966404 335.344,57.024625 C338.368015,53.9526096 342.015979,51.5766334 346.288,49.896625 C350.560021,48.2166166 355.335974,47.376625 360.616,47.376625 C365.032022,47.376625 369.135981,48.0246185 372.928,49.320625 C376.720019,50.6166315 380.031986,52.4886128 382.864,54.936625 C385.696014,57.3846372 387.927992,60.4326068 389.56,64.080625 C391.192008,67.7286432 392.008,71.856602 392.008,76.464625 C392.008,79.8246418 391.648004,82.7286128 390.928,85.176625 C390.207996,87.6246372 389.248006,89.7366161 388.048,91.512625 C386.847994,93.2886339 385.480008,94.872618 383.944,96.264625 C382.407992,97.656632 380.872008,99.0246183 379.336,100.368625 C377.511991,101.904633 375.832008,103.392618 374.296,104.832625 C372.759992,106.272632 371.416006,107.880616 370.264,109.656625 C369.111994,111.432634 368.224003,113.520613 367.6,115.920625 C366.975997,118.320637 366.664,121.248608 366.664,124.704625 L351.112,124.704625 C351.112,120.480604 351.327998,116.90464 351.76,113.976625 C352.192002,111.04861 352.887995,108.480636 353.848,106.272625 C354.808005,104.064614 355.983993,102.120633 357.376,100.440625 C358.768007,98.7606166 360.42399,97.1046332 362.344,95.472625 C363.880008,94.1286183 365.343993,92.8806308 366.736,91.728625 C368.128007,90.5766192 369.375994,89.304632 370.48,87.912625 C371.584006,86.520618 372.447997,84.9606336 373.072,83.232625 C373.696003,81.5046164 374.008,79.440637 374.008,77.040625 C374.008,74.1606106 373.504005,71.6886353 372.496,69.624625 C371.487995,67.5606147 370.264007,65.9046312 368.824,64.656625 C367.383993,63.4086188 365.848008,62.4966279 364.216,61.920625 C362.583992,61.3446221 361.144006,61.056625 359.896,61.056625 C353.94397,61.056625 349.552014,63.0006056 346.72,66.888625 C343.887986,70.7766444 342.472,75.9845924 342.472,82.512625 L326.056,82.512625 Z" id="?"></path>
                <path d="M216.46,86 L232.54,86 L232.54,101 L216.46,101 L216.46,86 Z M197.38,42.56 C197.38,38.159978 198.039993,34.160018 199.36,30.56 C200.680007,26.959982 202.599987,23.8800128 205.12,21.32 C207.640013,18.7599872 210.679982,16.780007 214.24,15.38 C217.800018,13.979993 221.779978,13.28 226.18,13.28 C229.860018,13.28 233.279984,13.8199946 236.44,14.9 C239.600016,15.9800054 242.359988,17.5399898 244.72,19.58 C247.080012,21.6200102 248.939993,24.1599848 250.3,27.2 C251.660007,30.2400152 252.34,33.6799808 252.34,37.52 C252.34,40.320014 252.040003,42.7399898 251.44,44.78 C250.839997,46.8200102 250.040005,48.5799926 249.04,50.06 C248.039995,51.5400074 246.900006,52.8599942 245.62,54.02 C244.339994,55.1800058 243.060006,56.3199944 241.78,57.44 C240.259992,58.7200064 238.860006,59.959994 237.58,61.16 C236.299994,62.360006 235.180005,63.6999926 234.22,65.18 C233.259995,66.6600074 232.520003,68.39999 232,70.4 C231.479997,72.40001 231.22,74.8399856 231.22,77.72 L218.26,77.72 C218.26,74.1999824 218.439998,71.2200122 218.8,68.78 C219.160002,66.3399878 219.739996,64.2000092 220.54,62.36 C221.340004,60.5199908 222.319994,58.900007 223.48,57.5 C224.640006,56.099993 226.019992,54.7200068 227.62,53.36 C228.900006,52.2399944 230.119994,51.2000048 231.28,50.24 C232.440006,49.2799952 233.479995,48.2200058 234.4,47.06 C235.320005,45.8999942 236.039997,44.6000072 236.56,43.16 C237.080003,41.7199928 237.34,40.00001 237.34,38 C237.34,35.599988 236.920004,33.5400086 236.08,31.82 C235.239996,30.0999914 234.220006,28.7200052 233.02,27.68 C231.819994,26.6399948 230.540007,25.8800024 229.18,25.4 C227.819993,24.9199976 226.620005,24.68 225.58,24.68 C220.619975,24.68 216.960012,26.2999838 214.6,29.54 C212.239988,32.7800162 211.06,37.1199728 211.06,42.56 L197.38,42.56 Z" id="?-copy"></path>
                <path d="M130.499375,126 L141.219375,126 L141.219375,136 L130.499375,136 L130.499375,126 Z M117.779375,97.04 C117.779375,94.106652 118.219371,91.440012 119.099375,89.04 C119.979379,86.639988 121.259367,84.5866752 122.939375,82.88 C124.619383,81.1733248 126.64603,79.853338 129.019375,78.92 C131.39272,77.986662 134.046027,77.52 136.979375,77.52 C139.432721,77.52 141.712698,77.8799964 143.819375,78.6 C145.926052,79.3200036 147.766034,80.3599932 149.339375,81.72 C150.912716,83.0800068 152.152704,84.7733232 153.059375,86.8 C153.966046,88.8266768 154.419375,91.1199872 154.419375,93.68 C154.419375,95.546676 154.219377,97.1599932 153.819375,98.52 C153.419373,99.8800068 152.886045,101.053328 152.219375,102.04 C151.552705,103.026672 150.792713,103.906663 149.939375,104.68 C149.086037,105.453337 148.232713,106.21333 147.379375,106.96 C146.366037,107.813338 145.432713,108.639996 144.579375,109.44 C143.726037,110.240004 142.979378,111.133328 142.339375,112.12 C141.699372,113.106672 141.206043,114.26666 140.859375,115.6 C140.512707,116.93334 140.339375,118.55999 140.339375,120.48 L131.699375,120.48 C131.699375,118.133322 131.819374,116.146675 132.059375,114.52 C132.299376,112.893325 132.686039,111.466673 133.219375,110.24 C133.752711,109.013327 134.406038,107.933338 135.179375,107 C135.952712,106.066662 136.872703,105.146671 137.939375,104.24 C138.792713,103.49333 139.606038,102.800003 140.379375,102.16 C141.152712,101.519997 141.846039,100.813337 142.459375,100.04 C143.072711,99.2666628 143.552707,98.4000048 143.899375,97.44 C144.246043,96.4799952 144.419375,95.33334 144.419375,94 C144.419375,92.399992 144.139378,91.0266724 143.579375,89.88 C143.019372,88.7333276 142.339379,87.8133368 141.539375,87.12 C140.739371,86.4266632 139.886046,85.9200016 138.979375,85.6 C138.072704,85.2799984 137.272712,85.12 136.579375,85.12 C133.272692,85.12 130.832716,86.1999892 129.259375,88.36 C127.686034,90.5200108 126.899375,93.4133152 126.899375,97.04 L117.779375,97.04 Z" id="?-copy-2"></path>
            </g>
        </g>
    </g>
</svg>