<?xml version="1.0" encoding="UTF-8"?>
<svg width="716px" height="757px" viewBox="0 0 716 757" version="1.1" xmlns="http://www.w3.org/2000/svg" xmlns:xlink="http://www.w3.org/1999/xlink">
    <!-- Generator: Sketch 50.2 (55047) - http://www.bohemiancoding.com/sketch -->
    <title>Group 18</title>
    <desc>Created with Sketch.</desc>
    <defs>
        <path d="M0.730983518,23.1010901 C0.730983518,23.1010901 41.3033695,-12.6683397 81.8757555,6.48825958 C51.0358129,35.4426977 0.730983518,23.1010901 0.730983518,23.1010901 Z" id="path-1"></path>
    </defs>
    <g id="Retro-Finance" stroke="none" stroke-width="1" fill="none" fill-rule="evenodd">
        <g id="Home-Copy-2" transform="translate(-964.000000, -182.000000)">
            <g id="Group-18" transform="translate(964.000000, 182.000000)">
                <g id="Group-11">
                    <g id="Group-17" transform="translate(0.000000, 51.000000)">
                        <ellipse id="Oval-4" fill="#4A4A4A" opacity="0.07" cx="358.599609" cy="654.736415" rx="358.259766" ry="50.7364154"></ellipse>
                        <g id="Group-6" transform="translate(411.000000, 435.000000)">
                            <g id="Path-4" transform="translate(41.534352, 135.986982) scale(-1, 1) rotate(146.000000) translate(-41.534352, -135.986982) translate(0.534352, 122.986982)">
                                <mask id="mask-2" fill="white">
                                    <use xlink:href="#path-1"></use>
                                </mask>
                                <use id="Mask" fill="#229BA3" xlink:href="#path-1"></use>
                            </g>
                            <g id="Path-4" transform="translate(112.516745, 86.516750) rotate(132.000000) translate(-112.516745, -86.516750) translate(28.516745, 51.516750)">
                                <path d="M0.502148266,62.6446938 C0.502148266,62.6446938 83.8771324,-37.4503159 167.252116,16.1563533 C103.876999,97.1807025 0.502148266,62.6446938 0.502148266,62.6446938 Z" id="Mask" fill="#00C0CD"></path>
                                <path d="M0.502148266,62.6446938 C0.502148266,62.6446938 32.1379083,53.6805792 95.4094284,35.7523501 C125.294383,26.3396701 149.241945,19.8076712 167.252116,16.1563533 C103.876999,97.1807025 0.502148266,62.6446938 0.502148266,62.6446938 Z" id="Mask" fill="#11ADB7"></path>
                                <path d="M165.603207,14.1979476 L80.0354313,40.825343" id="Path-3" stroke="#119DA6" stroke-linecap="round"></path>
                                <path d="M141.917033,20.1510395 L124.236576,11.2906237" id="Path-3" stroke="#119DA6" stroke-linecap="round"></path>
                                <path d="M135.901246,23.1045114 L121.167531,37.8718711" id="Path-3" stroke="#119DA6" stroke-linecap="round"></path>
                                <path d="M115.396347,26.0579834 L100.662632,20.1510395" id="Path-3" stroke="#119DA6" stroke-linecap="round"></path>
                                <path d="M97.7158891,34.9183991 L91.8224032,46.7322869" id="Path-3" stroke="#119DA6" stroke-linecap="round"></path>
                            </g>
                            <g id="Path-4" transform="translate(54.799705, 106.851943) rotate(-270.000000) translate(-54.799705, -106.851943) translate(-3.200295, 82.351943)">
                                <path d="M0.347218129,43.3166355 C0.347218129,43.3166355 57.9981312,-25.895596 115.649044,11.1715586 C71.8273462,67.197089 0.347218129,43.3166355 0.347218129,43.3166355 Z" id="Mask" fill="#00C0CD"></path>
                                <path d="M0.347218129,43.3166355 C0.347218129,43.3166355 22.2222502,37.1182608 65.9723144,24.7215115 C86.6367249,18.2129694 103.195635,13.6963184 115.649044,11.1715586 C71.8273462,67.197089 0.347218129,43.3166355 0.347218129,43.3166355 Z" id="Mask" fill="#11ADB7"></path>
                                <path d="M114.50888,9.81738891 L55.341728,28.2293103" id="Path-3" stroke="#119DA6" stroke-linecap="round"></path>
                                <path d="M98.1307121,13.9337457 L85.9052881,7.80707513" id="Path-3" stroke="#119DA6" stroke-linecap="round"></path>
                                <path d="M93.9710036,15.9759692 L83.7831502,26.1870868" id="Path-3" stroke="#119DA6" stroke-linecap="round"></path>
                                <path d="M79.792576,18.0181927 L69.6047227,13.9337457" id="Path-3" stroke="#119DA6" stroke-linecap="round"></path>
                                <path d="M67.567152,24.1448633 L63.4920107,32.3137574" id="Path-3" stroke="#119DA6" stroke-linecap="round"></path>
                            </g>
                            <path d="M27.6658973,157.412494 L114.404965,157.412494 C115.509535,157.412494 116.404965,158.307924 116.404965,159.412494 C116.404965,159.506834 116.39829,159.601056 116.38499,159.694454 L106.023915,232.453521 C105.39227,236.889149 101.594179,240.184698 97.113803,240.184698 L44.9570597,240.184698 C40.4766834,240.184698 36.6785927,236.889149 36.046948,232.453521 L25.6858725,159.694454 C25.5301499,158.600917 26.2903992,157.588192 27.3839367,157.432469 C27.4773348,157.419169 27.5715569,157.412494 27.6658973,157.412494 Z" id="Rectangle-10" fill="#32343A"></path>
                        </g>
                        <g id="Group-9" transform="translate(304.339844, 325.496065)">
                            <rect id="Rectangle-16" fill="#5F4138" x="0.0378095642" y="0" width="115.306037" height="29.8941579" rx="14.9470789"></rect>
                            <rect id="Rectangle-16" fill="#FAB058" x="6.44370053" y="29.0400391" width="102.494256" height="5.12471278" rx="2.56235639"></rect>
                            <rect id="Rectangle-16" fill="#FAB058" x="11.5260765" y="249.299144" width="100" height="5.12471278" rx="2.56235639"></rect>
                            <path d="M35.6565043,289.546272 L79.7239665,289.546272 C81.1404787,289.546272 82.5517514,289.718256 83.9268062,290.058449 L106.022953,295.525103 C107.649443,295.927502 108.641765,297.572241 108.239367,299.198731 C107.904368,300.552791 106.689231,301.503935 105.294346,301.503935 L10.0861244,301.503935 C8.41059663,301.503935 7.05231298,300.145651 7.05231298,298.470124 C7.05231298,297.075239 8.00345718,295.860102 9.35751738,295.525103 L31.4536646,290.058449 C32.8287194,289.718256 34.2399921,289.546272 35.6565043,289.546272 Z" id="Rectangle-16" fill="#FAB058"></path>
                            <path d="M-72.1352287,159.720215 L187.516885,159.720215 C188.932036,159.720215 190.079242,160.867421 190.079242,162.282571 L190.079242,162.282571 C190.079242,163.697722 188.932036,164.844928 187.516885,164.844928 L-72.1352287,164.844928 C-73.5503791,164.844928 -74.6975851,163.697722 -74.6975851,162.282571 L-74.6975851,162.282571 C-74.6975851,160.867421 -73.5503791,159.720215 -72.1352287,159.720215 Z" id="Rectangle-16" fill="#FAB058" transform="translate(57.690828, 162.282571) rotate(90.000000) translate(-57.690828, -162.282571) "></path>
                        </g>
                        <path d="M265.293138,113.478153 L265.293138,113.478153 C275.071268,113.478153 282.998008,121.404893 282.998008,131.183023 C282.998008,131.536185 282.987442,131.889268 282.966322,132.241797 L277.066616,230.720393 C276.934507,232.925578 275.039755,234.606138 272.83457,234.474029 C272.827739,234.47362 272.82091,234.473193 272.814081,234.472749 L245.483737,232.694613 C243.316141,232.553587 241.657255,230.708426 241.746834,228.538095 L245.720667,132.259448 C246.153866,121.763843 254.788596,113.478153 265.293138,113.478153 Z" id="Rectangle-2" fill="#FFC100" transform="translate(262.370690, 173.979733) rotate(21.000000) translate(-262.370690, -173.979733) "></path>
                        <g id="Group-4" transform="translate(262.641977, 0.617751)">
                            <rect id="Rectangle-11" fill="#FFC100" x="36" y="104.387427" width="38" height="21"></rect>
                            <g id="Group-3" transform="translate(49.113425, 50.439035) rotate(-11.000000) translate(-49.113425, -50.439035) translate(7.759395, 7.106552)">
                                <ellipse id="Oval-2" fill="#FFBDA1" cx="40.649031" cy="45.2481502" rx="39.3836479" ry="39.4735816"></ellipse>
                                <path d="M60.3251776,57.1373641 C73.4302997,57.1373641 64.661377,81.3701627 72.504453,72.0648993 C78.7936053,64.6032579 82.5847214,54.9580996 82.5847214,44.4254566 C82.5847214,20.7577656 63.44198,1.57131118 39.8282117,1.57131118 C23.2166626,1.57131118 8.81768316,11.0660802 1.73885577,24.9363724 C-1.24506225,30.7830773 47.3174877,19.9073903 60.3251776,37.8818634 C64.1899178,43.2222942 59.2922873,57.1373641 60.3251776,57.1373641 Z" id="Oval-2" fill="#072043"></path>
                                <ellipse id="Oval-3" fill="#FFBDA1" cx="60.4741121" cy="49.3748823" rx="9.17346727" ry="11.4930189"></ellipse>
                            </g>
                            <rect id="Rectangle-6" fill="#FFBDA1" transform="translate(56.643141, 102.945833) rotate(-11.000000) translate(-56.643141, -102.945833) " x="42.467418" y="82.581115" width="28.3514459" height="40.7294366"></rect>
                        </g>
                        <g id="Group-5" transform="translate(350.234375, 482.429688) rotate(-81.000000) translate(-350.234375, -482.429688) translate(314.234375, 458.429688)">
                            <rect id="Rectangle-9" fill="#FFBDA1" x="37.5945724" y="0" width="30.0756579" height="30.1443365"></rect>
                            <path d="M18.7972862,26.4577303 C29.3286852,23.3268654 46.872819,23.3268654 71.4296875,26.4577303 L71.4296875,47.6929621 L0,47.6929621 C2.0001251,36.6670058 8.26588716,29.5885952 18.7972862,26.4577303 Z" id="Rectangle-8" fill="#1E1A1E"></path>
                        </g>
                        <g id="Group-5" transform="translate(321.470213, 546.970339) rotate(-43.000000) translate(-321.470213, -546.970339) translate(283.970213, 518.470339)">
                            <rect id="Rectangle-9" fill="#FFBDA1" x="40.5945724" y="0" width="30.0756579" height="30.1443365"></rect>
                            <path d="M15.1361891,31.5340787 C25.6675882,28.4032139 45.4320876,26.7110977 74.4296875,26.4577303 L74.4296875,47.6929621 C65.321982,53.8223127 58.6549761,56.8869879 54.4286699,56.8869879 C50.2023637,56.8869879 32.4104493,53.4701682 1.0529266,46.6365288 C-0.0896307351,39.6990936 4.60479011,34.6649436 15.1361891,31.5340787 Z" id="Rectangle-8" fill="#1E1A1E"></path>
                        </g>
                        <path d="M299.08172,105.005178 L300.339719,105.005178 C303.673052,114.413994 308.632729,119.118403 315.21875,119.118403 C321.804771,119.118403 328.252474,114.413994 334.561859,105.005178 L355.497897,105.005178 C372.268017,105.005178 385.997612,118.341535 386.484812,135.104576 L390.71875,280.78125 L308.878906,280.78125 L269.31365,144.657459 C264.535127,128.217008 273.988988,111.01563 290.429439,106.237107 C293.240887,105.419942 296.153923,105.005178 299.08172,105.005178 Z" id="Rectangle" fill="#FFA800"></path>
                        <polygon id="Path-4" fill="#00326E" points="312.676561 313.080518 215.079171 410.834749 337.938538 489.359375 351.058594 444.738281 287.175781 401.046118 337.938538 313.080518"></polygon>
                        <path d="M388.598421,279.526841 C401.110907,306.015669 393.422176,328.311594 365.532229,346.414617 C337.642281,364.51764 303.528674,386.451086 263.191406,412.214957 L341.941406,509.042969 L308.460938,540.46875 L194.349663,423.554368 C188.219909,417.274039 188.292984,407.228243 194.513453,401.037752 L316.612792,279.526841 L388.598421,279.526841 Z" id="Path-3" fill="#004BA1"></path>
                        <g id="Group-12" transform="translate(23.000000, 253.000000)">
                            <g id="Group-7" transform="translate(0.641977, 0.161532)">
                                <ellipse id="Oval-7" fill="#D87B27" cx="148.752649" cy="30.98957" rx="148.623448" ry="30.3571298"></ellipse>
                                <g id="Group-6" transform="translate(72.859825, 30.092249)" stroke="#D87B27" stroke-linecap="square" stroke-width="3">
                                    <path d="M60.5761733,5.51281768 L0.632440203,347.474552" id="Line"></path>
                                    <path d="M67.6711018,21.1354071 L67.6711018,399.334649" id="Line"></path>
                                    <path d="M150.926185,0.127762906 L67.805473,360.926433 L150.926185,0.127762906 Z" id="Line" transform="translate(109.365829, 180.527098) scale(-1, 1) translate(-109.365829, -180.527098) "></path>
                                </g>
                            </g>
                            <polygon id="Rectangle-4" fill="#FFFFFF" points="51.2960699 9.6532247 185.542164 9.6532247 209.594297 42.7118184 63.594297 42.7118184"></polygon>
                        </g>
                        <g id="Group-10" transform="translate(208.000000, 87.000000)">
                            <g id="Group-14" transform="translate(95.791740, 120.443816) rotate(11.000000) translate(-95.791740, -120.443816) translate(19.791740, 12.943816)">
                                <path d="M124.90678,0.541262029 L124.90678,0.541262029 C135.288234,0.541262029 143.704066,8.95709372 143.704066,19.3385482 L143.704066,154.799029 C143.704066,157.008168 141.913205,158.799029 139.704066,158.799029 L110.109493,158.799029 C107.900354,158.799029 106.109493,157.008168 106.109493,154.799029 L106.109493,19.3385482 C106.109493,8.95709372 114.525325,0.541262029 124.90678,0.541262029 Z" id="Rectangle-2" fill="#FFC100"></path>
                                <g id="Group-13" transform="translate(75.788011, 170.275816) rotate(-20.000000) translate(-75.788011, -170.275816) translate(2.788011, 150.275816)">
                                    <path d="M69.5149211,-31.8666591 L69.5149211,-31.8666591 C73.4772014,-31.8666591 76.6892642,-28.6545963 76.6892642,-24.692316 L76.6892642,62.1024346 C76.6892642,64.3115736 74.8984032,66.1024346 72.6892642,66.1024346 L66.340578,66.1024346 C64.131439,66.1024346 62.340578,64.3115736 62.340578,62.1024346 L62.340578,-24.692316 C62.340578,-28.6545963 65.5526408,-31.8666591 69.5149211,-31.8666591 Z" id="Rectangle-2" fill="#FFBDA1" transform="translate(69.514921, 17.117888) rotate(90.000000) translate(-69.514921, -17.117888) "></path>
                                    <path d="M25.4157441,-4.12054236 L35.91589,-4.12054236 L35.91589,35.9748178 L9.36806401,35.9748178 C7.15892501,35.9748178 5.36806401,34.1839568 5.36806401,31.9748178 L5.36806401,15.9271377 C5.36806401,4.85510973 14.3437161,-4.12054236 25.4157441,-4.12054236 Z" id="Rectangle-2" fill="#FFBDA1" transform="translate(20.641977, 15.927138) rotate(90.000000) translate(-20.641977, -15.927138) "></path>
                                    <path d="M96.1796875,-27.9956092 L96.1796875,-27.9956092 C106.561142,-27.9956092 114.976974,-19.5797776 114.976974,-9.19832306 L114.976974,65.9734845 C114.976974,68.1826235 113.186113,69.9734845 110.976974,69.9734845 L81.3824013,69.9734845 C79.1732623,69.9734845 77.3824013,68.1826235 77.3824013,65.9734845 L77.3824013,-9.19832306 C77.3824013,-19.5797776 85.798233,-27.9956092 96.1796875,-27.9956092 Z" id="Rectangle-2" fill="#FFC100" transform="translate(96.179688, 20.988938) rotate(90.000000) translate(-96.179688, -20.988938) "></path>
                                </g>
                            </g>
                        </g>
                        <g id="Group-15" transform="translate(100.000000, 201.000000)">
                            <path d="M35.6565034,52.2866827 C33.3025485,24.7957527 35.5426023,9.14349997 42.3766647,5.32992442 C49.2107271,1.51634887 56.2810286,1.51634887 63.5875694,5.32992442 C79.8205768,14.1101478 83.8788287,18.5002594 75.762325,18.5002594 C67.6458213,18.5002594 63.5875694,21.4595772 63.5875694,27.3782127 L57.2862306,52.2866827 L35.6565034,85.157679 L16.190509,80.6636001 L35.6565034,52.2866827 Z" id="Path-5" fill="#FFBDA1" transform="translate(48.005543, 43.813711) scale(-1, 1) rotate(77.000000) translate(-48.005543, -43.813711) "></path>
                            <path d="M110.262171,-17.2633982 L110.262171,-17.2633982 C120.643626,-17.2633982 129.059458,-8.84756651 129.059458,1.53388798 L129.059458,76.7056956 C129.059458,78.9148346 127.268597,80.7056956 125.059458,80.7056956 L95.4648852,80.7056956 C93.2557462,80.7056956 91.4648852,78.9148346 91.4648852,76.7056956 L91.4648852,1.53388798 C91.4648852,-8.84756651 99.8807168,-17.2633982 110.262171,-17.2633982 Z" id="Rectangle-2" fill="#FFC100" transform="translate(110.262171, 31.721149) rotate(74.000000) translate(-110.262171, -31.721149) "></path>
                            <path d="M25.1171875,16.1190863 C26.2536372,14.8909733 27.4505677,14.2769168 28.7079789,14.2769168 C29.9653902,14.2769168 31.2228868,14.8909733 32.4804688,16.1190863 L32.4804688,74.7177084 L28.7988281,83.6065363 L25.1171875,74.7177084 L25.1171875,16.1190863 Z" id="Path-12" fill="#222222" transform="translate(28.798828, 48.941727) rotate(41.000000) translate(-28.798828, -48.941727) "></path>
                            <path d="M46.2278344,52.9874667 C27.2471529,45.0226517 17.7568122,42.0428484 17.7568122,44.0480567 C17.7568122,46.053265 25.4717623,51.5506465 40.9016625,60.540201 L46.2278344,52.9874667 Z" id="Path-13" fill="#FFBDA1" transform="translate(31.992323, 51.991658) rotate(-48.000000) translate(-31.992323, -51.991658) "></path>
                        </g>
                    </g>
                    <g id="clock-(4)" transform="translate(567.000000, 0.242751)">
                        <path d="M113.748908,56.874454 C113.748908,25.4639816 88.2849265,0 56.874454,0 C25.4639816,0 0,25.4639816 0,56.874454 C0,88.2849265 25.4639816,113.748908 56.874454,113.748908 C88.2849265,113.748908 113.748908,88.2849265 113.748908,56.874454" id="Shape" fill="#F5F5F5" fill-rule="nonzero"></path>
                        <g id="Group" transform="translate(5.776312, 5.776312)">
                            <g id="Group-16">
                                <path d="M51.0981423,0.107306099 C50.0135287,0.107306099 49.1368623,0.983972488 49.1368623,2.0685861 L49.1368623,9.8897122 C49.1368623,10.9743258 50.0135287,11.8509922 51.0981423,11.8509922 C52.1827559,11.8509922 53.0594223,10.9743258 53.0594223,9.8897122 L53.0594223,2.06836393 C53.0594223,0.983972488 52.1827559,0.107306099 51.0981423,0.107306099" id="Shape" fill="#C4C4C4" fill-rule="nonzero"></path>
                                <path d="M51.0981423,90.3448481 C50.0135287,90.3448481 49.1368623,91.2215145 49.1368623,92.3061281 L49.1368623,100.127254 C49.1368623,101.211868 50.0135287,102.088534 51.0981423,102.088534 C52.1827559,102.088534 53.0594223,101.211868 53.0594223,100.127254 L53.0594223,92.3061281 C53.0594223,91.2215145 52.1827559,90.3448481 51.0981423,90.3448481" id="Shape" fill="#C4C4C4" fill-rule="nonzero"></path>
                                <path d="M100.127921,49.1368623 L92.3067946,49.1368623 C91.222181,49.1368623 90.3455146,50.0135287 90.3455146,51.0981423 C90.3455146,52.1827559 91.222181,53.0594223 92.3067946,53.0594223 L100.127921,53.0594223 C101.212534,53.0594223 102.089201,52.1827559 102.089201,51.0981423 C102.089201,50.0135287 101.212312,49.1368623 100.127921,49.1368623" id="Shape" fill="#C4C4C4" fill-rule="nonzero"></path>
                                <path d="M9.89015653,53.0594223 C10.9747701,53.0594223 11.8514365,52.1827559 11.8514365,51.0981423 C11.8514365,50.0135287 10.9747701,49.1368623 9.89015653,49.1368623 L2.06903043,49.1368623 C0.98441682,49.1368623 0.107750431,50.0135287 0.107750431,51.0981423 C0.107750431,52.1827559 0.98441682,53.0594223 2.06903043,53.0594223 L9.89015653,53.0594223 Z" id="Shape" fill="#C4C4C4" fill-rule="nonzero"></path>
                                <path d="M84.3808062,15.0421823 L78.8504321,20.5725564 C78.0835156,21.3394729 78.0835156,22.5807134 78.8504321,23.3456304 C79.2327795,23.7299773 79.7348743,23.9201512 80.236969,23.9201512 C80.7390638,23.9201512 81.2391591,23.7299773 81.623506,23.3456304 L87.1541024,17.8150341 C87.9210188,17.0481176 87.9210188,15.8086544 87.1541024,15.0419601 C86.3871859,14.2752658 85.1477227,14.2752658 84.3808062,15.0421823" id="Shape" fill="#C4C4C4" fill-rule="nonzero"></path>
                                <path d="M23.3465191,78.8497656 C22.5796026,78.0828491 21.3401394,78.0828491 20.5734451,78.8497656 L15.0428488,84.3803619 C14.2759323,85.1472784 14.2759323,86.3885189 15.0428488,87.1534359 C15.4251962,87.5377827 15.927291,87.7279567 16.4293857,87.7279567 C16.9314805,87.7279567 17.4315758,87.5377827 17.8159227,87.1534359 L23.3465191,81.6228395 C24.1134355,80.8559231 24.1134355,79.6164599 23.3465191,78.8497656" id="Shape" fill="#C4C4C4" fill-rule="nonzero"></path>
                                <path d="M81.6230617,78.8497656 C80.8561452,78.0828491 79.616682,78.0828491 78.8499877,78.8497656 C78.0830713,79.616682 78.0830713,80.8561452 78.8499877,81.6228395 L84.3805841,87.1534359 C84.7649309,87.5377827 85.2650262,87.7279567 85.767121,87.7279567 C86.2692158,87.7279567 86.7713106,87.5377827 87.153658,87.1534359 C87.9205745,86.3885189 87.9205745,85.1470562 87.153658,84.3803619 L81.6230617,78.8497656 Z" id="Shape" fill="#C4C4C4" fill-rule="nonzero"></path>
                                <path d="M20.5732229,23.3465191 C20.9555703,23.7288665 21.4576651,23.9210399 21.9597599,23.9210399 C22.4618547,23.9210399 22.9639495,23.7288665 23.3462969,23.3465191 C24.1132134,22.5796026 24.1132134,21.3401394 23.3462969,20.5734451 L17.8157006,15.0428488 C17.0487841,14.2759323 15.8075436,14.2759323 15.0426266,15.0428488 C14.2757101,15.8077657 14.2757101,17.0492284 15.0426266,17.8159227 L20.5732229,23.3465191 Z" id="Shape" fill="#C4C4C4" fill-rule="nonzero"></path>
                                <path d="M72.6711115,53.0594223 L56.981538,53.0594223 C55.8969244,53.0594223 55.020258,52.1827559 55.020258,51.0981423 C55.020258,50.0135287 55.8969244,49.1368623 56.981538,49.1368623 L72.6711115,49.1368623 C73.7557251,49.1368623 74.6323915,50.0135287 74.6323915,51.0981423 C74.6323915,52.1827559 73.7557251,53.0594223 72.6711115,53.0594223" id="Shape" fill="#C4C4C4" fill-rule="nonzero"></path>
                                <path d="M51.0981423,47.1758045 C50.0135287,47.1758045 49.1368623,46.2991381 49.1368623,45.2145245 L49.1368623,21.6802753 C49.1368623,20.5956617 50.0135287,19.7189953 51.0981423,19.7189953 C52.1827559,19.7189953 53.0594223,20.5956617 53.0594223,21.6802753 L53.0594223,45.2145245 C53.0594223,46.2991381 52.1827559,47.1758045 51.0981423,47.1758045" id="Shape" fill="#C4C4C4" fill-rule="nonzero"></path>
                                <path d="M56.9817601,51.0981423 C56.9817601,47.8485226 54.3479842,45.2145245 51.0981423,45.2145245 C47.8485226,45.2145245 45.2145245,47.8483005 45.2145245,51.0981423 C45.2145245,54.347762 47.8483005,56.9817601 51.0981423,56.9817601 C54.347762,56.9817601 56.9817601,54.347762 56.9817601,51.0981423 Z" id="Shape"></path>
                            </g>
                        </g>
                        <g id="Group" transform="translate(54.874962, 25.326905)"></g>
                        <path d="M62.7580719,56.874454 C62.7580719,53.6248344 60.1242959,50.9908362 56.874454,50.9908362 C53.6248344,50.9908362 50.9908362,53.6246122 50.9908362,56.874454 C50.9908362,60.1240737 53.6246122,62.7580719 56.874454,62.7580719 C60.1240737,62.7580719 62.7580719,60.1240737 62.7580719,56.874454" id="Shape" fill="#C4C4C4" fill-rule="nonzero"></path>
                    </g>
                </g>
            </g>
        </g>
    </g>
</svg>